G04 ---------------------------- Layer name :BOTTOM SOLDER LAYER*
G04 EasyEDA v5.5.12, Wed, 13 Jun 2018 18:03:35 GMT*
G04 4f5264131ad04cbc883cc3dc534661a7*
G04 Gerber Generator version 0.2*
G04 Scale: 100 percent, Rotated: No, Reflected: No *
G04 Dimensions in millimeters *
G04 leading zeros omitted , absolute positions ,3 integer and 3 decimal *
%FSLAX33Y33*%
%MOMM*%
G90*
G71D02*

%ADD36C,1.727200*%
%ADD37C,1.903197*%
%ADD38R,1.903197X1.903197*%
%ADD39C,2.082800*%
%ADD40C,1.701800*%
%ADD41R,1.701800X1.701800*%
%ADD42R,1.727200X1.727200*%
%ADD43R,1.854200X1.854200*%
%ADD44C,1.854200*%
%ADD45C,2.083308*%
%ADD46C,1.498600*%
%ADD47R,1.402080X1.402080*%
%ADD48R,1.778000X1.778000*%
%ADD49C,1.778000*%
%ADD50R,1.719580X2.933700*%

%LPD*%
G54D36*
G01X111022Y29972D02*
G01X112497Y29972D01*
G01X133882Y29972D02*
G01X135357Y29972D01*
G01X134849Y61976D02*
G01X133374Y61976D01*
G01X111989Y61976D02*
G01X110514Y61976D01*
G01X19050Y60452D03*
G01X39370Y60706D03*
G01X41910Y55118D03*
G01X41910Y42418D03*
G01X59436Y17018D03*
G01X67564Y17018D03*
G01X72644Y23368D03*
G01X72644Y14224D03*
G01X70358Y14224D03*
G01X70358Y23114D03*
G01X70104Y29718D03*
G01X69850Y35306D03*
G01X69596Y83566D03*
G01X69850Y88900D03*
G01X32512Y16764D03*
G01X29972Y14224D03*
G54D37*
G01X20967Y22920D03*
G54D38*
G01X20967Y25521D03*
G54D37*
G01X20967Y28120D03*
G01X20967Y30721D03*
G01X20967Y33319D03*
G01X20967Y35920D03*
G01X20967Y38519D03*
G01X20967Y41120D03*
G01X20967Y43721D03*
G01X20967Y46319D03*
G01X20967Y48920D03*
G01X21026Y51468D03*
G01X36027Y51465D03*
G01X35968Y48920D03*
G01X36068Y46319D03*
G01X36068Y43721D03*
G01X36068Y41120D03*
G01X36068Y38519D03*
G01X36068Y35920D03*
G01X36068Y33319D03*
G54D38*
G01X36068Y30721D03*
G54D37*
G01X36068Y28120D03*
G01X36068Y25519D03*
G01X36068Y23020D03*
G01X28432Y51549D03*
G01X25935Y51549D03*
G01X23434Y51549D03*
G01X30934Y51549D03*
G54D38*
G01X33436Y51554D03*
G54D37*
G01X29768Y20520D03*
G01X27167Y20520D03*
G54D38*
G01X24668Y20520D03*
G54D37*
G01X32268Y20520D03*
G01X34668Y20520D03*
G54D38*
G01X22268Y20520D03*
G54D39*
G01X23114Y75438D03*
G01X25654Y75438D03*
G01X28194Y75438D03*
G01X30734Y75438D03*
G01X20574Y75438D03*
G01X33274Y75438D03*
G01X35814Y75438D03*
G01X38354Y75438D03*
G54D40*
G01X52070Y12319D03*
G01X54610Y12319D03*
G01X57150Y12319D03*
G01X59690Y12319D03*
G54D41*
G01X62230Y12319D03*
G54D36*
G01X24638Y66802D03*
G01X27178Y66802D03*
G01X29718Y66802D03*
G54D42*
G01X32258Y66802D03*
G54D43*
G01X47167Y38354D03*
G54D44*
G01X47167Y35814D03*
G01X47167Y33274D03*
G01X47167Y30734D03*
G54D37*
G01X91808Y47437D03*
G54D38*
G01X91808Y44836D03*
G54D37*
G01X91808Y42237D03*
G01X91808Y39636D03*
G01X91808Y37038D03*
G01X91808Y34437D03*
G01X91808Y31838D03*
G01X91808Y29237D03*
G01X91808Y26636D03*
G01X91808Y24038D03*
G01X91808Y21437D03*
G01X91749Y18889D03*
G01X76748Y18892D03*
G01X76807Y21437D03*
G01X76708Y24038D03*
G01X76708Y26636D03*
G01X76708Y29237D03*
G01X76708Y31838D03*
G01X76708Y34437D03*
G01X76708Y37038D03*
G54D38*
G01X76708Y39636D03*
G54D37*
G01X76708Y42237D03*
G01X76708Y44838D03*
G01X76708Y47337D03*
G01X84343Y18808D03*
G01X86840Y18808D03*
G01X89341Y18808D03*
G01X81841Y18808D03*
G54D38*
G01X79339Y18803D03*
G54D37*
G01X83007Y49837D03*
G01X85608Y49837D03*
G54D38*
G01X88107Y49837D03*
G54D37*
G01X80507Y49837D03*
G01X78107Y49837D03*
G54D38*
G01X90507Y49837D03*
G54D45*
G01X54864Y33782D03*
G01X64008Y33782D03*
G54D46*
G01X8509Y47371D03*
G01X8509Y44831D03*
G01X8509Y42291D03*
G01X8509Y39751D03*
G54D47*
G01X111760Y9652D03*
G01X111760Y12192D03*
G01X111760Y14732D03*
G01X111760Y17272D03*
G01X111760Y19812D03*
G01X111760Y22352D03*
G01X111760Y24892D03*
G01X111760Y27432D03*
G01X134620Y9652D03*
G01X134620Y12192D03*
G01X134620Y14732D03*
G01X134620Y17272D03*
G01X134620Y19812D03*
G01X134620Y22352D03*
G01X134620Y24892D03*
G01X134620Y27432D03*
G01X134112Y82296D03*
G01X134112Y79756D03*
G01X134112Y77216D03*
G01X134112Y74676D03*
G01X134112Y72136D03*
G01X134112Y69596D03*
G01X134112Y67056D03*
G01X134112Y64516D03*
G01X111252Y82296D03*
G01X111252Y79756D03*
G01X111252Y77216D03*
G01X111252Y74676D03*
G01X111252Y72136D03*
G01X111252Y69596D03*
G01X111252Y67056D03*
G01X111252Y64516D03*
G54D39*
G01X77724Y56388D03*
G01X80264Y56388D03*
G01X82804Y56388D03*
G01X85344Y56388D03*
G01X87884Y56388D03*
G01X90424Y56388D03*
G01X35052Y12192D03*
G01X32512Y12192D03*
G01X29972Y12192D03*
G01X27432Y12192D03*
G01X24892Y12192D03*
G01X22352Y12192D03*
G54D48*
G01X84328Y81788D03*
G54D49*
G01X86868Y81788D03*
G54D36*
G01X72390Y72390D03*
G54D42*
G01X74930Y72390D03*
G54D36*
G01X77470Y72390D03*
G54D50*
G01X56135Y67308D03*
G01X58675Y67308D03*
G01X61215Y67308D03*
M00*
M02*
