;PTH Drill file created by EasyEDA 
M48
METRIC,LZ,000.000
;Holesize 1 = 0.712 METRIC
T01C0.712
;Holesize 2 = 0.798 METRIC
T02C0.798
;Holesize 3 = 0.814 METRIC
T03C0.814
;Holesize 4 = 0.889 METRIC
T04C0.889
;Holesize 5 = 0.915 METRIC
T05C0.915
;Holesize 6 = 1.000 METRIC
T06C1.000
;Holesize 7 = 1.016 METRIC
T07C1.016
;Holesize 8 = 1.118 METRIC
T08C1.118
%
G05
G90
T01
X008509Y047371
X008509Y044831
X008509Y042291
X008509Y039751
T02
X111760Y009652
X111760Y012192
X111760Y014732
X111760Y017272
X111760Y019812
X111760Y022352
X111760Y024892
X111760Y027432
X134620Y009652
X134620Y012192
X134620Y014732
X134620Y017272
X134620Y019812
X134620Y022352
X134620Y024892
X134620Y027432
X134112Y082296
X134112Y079756
X134112Y077216
X134112Y074676
X134112Y072136
X134112Y069596
X134112Y067056
X134112Y064516
X111252Y082296
X111252Y079756
X111252Y077216
X111252Y074676
X111252Y072136
X111252Y069596
X111252Y067056
X111252Y064516
T03
X054864Y033782
X064008Y033782
T04
X047167Y038354
X047167Y035814
X047167Y033274
X047167Y030734
X084328Y081788
X086868Y081788
T05
X019050Y060452
X039370Y060706
X041910Y055118
X041910Y042418
X059436Y017018
X067564Y017018
X072644Y023368
X072644Y014224
X070358Y014224
X070358Y023114
X070104Y029718
X069850Y035306
X069596Y083566
X069850Y088900
X032512Y016764
X029972Y014224
X052070Y012319
X054610Y012319
X057150Y012319
X059690Y012319
X062230Y012319
X024638Y066802
X027178Y066802
X029718Y066802
X032258Y066802
X111760Y029972
X134620Y029972
X134112Y061976
X111252Y061976
X072390Y072390
X074930Y072390
X077470Y072390
T06
X020967Y022920
X020967Y025521
X020967Y028120
X020967Y030721
X020967Y033319
X020967Y035920
X020967Y038519
X020967Y041120
X020967Y043721
X020967Y046319
X020967Y048920
X021026Y051468
X036027Y051465
X035968Y048920
X036068Y046319
X036068Y043721
X036068Y041120
X036068Y038519
X036068Y035920
X036068Y033319
X036068Y030721
X036068Y028120
X036068Y025519
X036068Y023020
X028432Y051549
X025935Y051549
X023434Y051549
X030934Y051549
X033436Y051554
X029768Y020520
X027167Y020520
X024668Y020520
X032268Y020520
X034668Y020520
X022268Y020520
X091808Y047437
X091808Y044836
X091808Y042237
X091808Y039636
X091808Y037038
X091808Y034437
X091808Y031838
X091808Y029237
X091808Y026636
X091808Y024038
X091808Y021437
X091749Y018889
X076748Y018892
X076807Y021437
X076708Y024038
X076708Y026636
X076708Y029237
X076708Y031838
X076708Y034437
X076708Y037038
X076708Y039636
X076708Y042237
X076708Y044838
X076708Y047337
X084343Y018808
X086840Y018808
X089341Y018808
X081841Y018808
X079339Y018803
X083007Y049837
X085608Y049837
X088107Y049837
X080507Y049837
X078107Y049837
X090507Y049837
T07
X023114Y075438
X025654Y075438
X028194Y075438
X030734Y075438
X020574Y075438
X033274Y075438
X035814Y075438
X038354Y075438
X077724Y056388
X080264Y056388
X082804Y056388
X085344Y056388
X087884Y056388
X090424Y056388
X035052Y012192
X032512Y012192
X029972Y012192
X027432Y012192
X024892Y012192
X022352Y012192
T08
X056135Y067308
X058675Y067308
X061215Y067308
M30
